<?xml version="1.0" standalone="no"?>
<svg xmlns="http://www.w3.org/2000/svg" viewBox="0 0 153.792 36" width="153.792" height="36"><g fill="#bb0f12" color="#bb0f12" transform="translate(0 4) scale(1.1666667)"><svg width="24.0" height="24.0" x="0.0" y="0.0" viewBox="0 0 24 24"><title></title><desc></desc><g stroke="none" stroke-width="1" fill="none" fill-rule="evenodd"><g transform="translate(-456.000000, -72.000000)" fill="currentColor"><g transform="translate(456.000000, 72.000000)"><path d="M1,0 L13,0 C13.5522847,-1.01453063e-16 14,0.44771525 14,1 L14,23 C14,23.5522847 13.5522847,24 13,24 L1,24 C0.44771525,24 6.76353751e-17,23.5522847 0,23 L0,1 C-6.76353751e-17,0.44771525 0.44771525,1.01453063e-16 1,0 Z M1,2 L1,21 L13,21 L13,2 L1,2 Z M6,23 L8,23 C8.27614237,23 8.5,22.7761424 8.5,22.5 C8.5,22.2238576 8.27614237,22 8,22 L6,22 C5.72385763,22 5.5,22.2238576 5.5,22.5 C5.5,22.7761424 5.72385763,23 6,23 Z"></path><g transform="translate(2.000000, 1.000000)"><path d="M1,10.5 L1,13.5 C1,14.8807119 2.11928813,16 3.5,16 C4.88071187,16 6,14.8807119 6,13.5 L6,6.5 C6,5.67157288 6.67157288,5 7.5,5 C8.32842712,5 9,5.67157288 9,6.5 L9,9.5 C9,11.9852814 11.0147186,14 13.5,14 C15.9852814,14 18,11.9852814 18,9.5 L18,8.5 C18,8.22385763 17.7761424,8 17.5,8 C17.2238576,8 17,8.22385763 17,8.5 L17,9.5 C17,11.4329966 15.4329966,13 13.5,13 C11.5670034,13 10,11.4329966 10,9.5 L10,6.5 C10,5.11928813 8.88071187,4 7.5,4 C6.11928813,4 5,5.11928813 5,6.5 L5,13.5 C5,14.3284271 4.32842712,15 3.5,15 C2.67157288,15 2,14.3284271 2,13.5 L2,10.5 C2,10.2238576 1.77614237,10 1.5,10 C1.22385763,10 1,10.2238576 1,10.5 Z" fill-rule="nonzero"></path><path d="M14,4.6737906 C13.9999892,5.07627884 14.1617322,5.46187558 14.4488703,5.74391654 C15.9846492,7.25243333 17.0568325,8.00867168 17.4898642,7.99989163 C17.9344341,7.99087764 19.0071344,7.23253592 20.5440339,5.74278277 C20.8354842,5.46024971 21,5.07165055 21,4.66573132 L21,1.99978888 L19,1.99978888 L19,0.999788884 L21.5,0.999788884 C21.7761424,0.999788884 22,1.22364651 22,1.49978888 L22,4.66573132 C22,5.34225825 21.7258137,5.98990777 21.2400564,6.46080273 C19.5045912,8.14303039 18.3159331,8.98334799 17.5101358,8.99968614 C16.6903906,9.0163071 15.4949053,8.17310069 13.7481238,6.45732697 C13.269558,5.98725632 12.999982,5.34458481 13,4.67377716 L13,1.49978888 C13,1.22364651 13.2238576,0.999788884 13.5,0.999788884 L16,0.999788884 L16,1.99978888 L14,1.99978888 L14,4.6737906 Z" fill-rule="nonzero"></path><path d="M15.5,0 C15.7761424,-5.07265313e-17 16,0.223857625 16,0.5 L16,2.5 C16,2.77614237 15.7761424,3 15.5,3 C15.2238576,3 15,2.77614237 15,2.5 L15,0.5 C15,0.223857625 15.2238576,5.07265313e-17 15.5,0 Z"></path><path d="M19.5,0 C19.2238576,-5.07265313e-17 19,0.223857625 19,0.5 L19,2.5 C19,2.77614237 19.2238576,3 19.5,3 C19.7761424,3 20,2.77614237 20,2.5 L20,0.5 C20,0.223857625 19.7761424,5.07265313e-17 19.5,0 Z"></path><path d="M1.5,11 C0.671572875,11 0,10.3284271 0,9.5 C0,8.67157288 0.671572875,8 1.5,8 C2.32842712,8 3,8.67157288 3,9.5 C3,10.3284271 2.32842712,11 1.5,11 Z" fill-rule="nonzero"></path></g></g></g></g></svg></g><path fill="#12286a" fill-rule="nonzero" d="M20.54 15.46Q20.66 15.86 20.66 16.51L20.66 16.51Q19.56 16.44 17.78 16.44L17.78 16.44Q16.08 16.44 14.86 16.51L14.86 16.51Q14.86 15.94 15 15.48L15 15.48Q15.91 15.38 16.22 15.07Q16.54 14.76 16.54 13.92L16.54 13.92Q16.54 13.44 16.46 12.72L16.46 12.72L15.60 4.49L10.63 16.49Q10.22 16.66 9.65 16.66L9.65 16.66L4.06 4.51L3.29 12.22Q3.22 12.94 3.22 13.46L3.22 13.46Q3.22 14.57 3.59 14.99Q3.96 15.41 4.85 15.48L4.85 15.48Q4.97 15.89 4.97 16.51L4.97 16.51Q3.82 16.44 2.40 16.44L2.40 16.44Q0.98 16.44 0 16.51L0 16.51Q0 15.89 0.12 15.48L0.12 15.48Q0.79 15.41 1.15 15.14Q1.51 14.88 1.72 14.17Q1.92 13.46 2.06 12L2.06 12L2.83 3.46Q2.86 3.24 2.86 2.88L2.86 2.88Q2.86 1.94 2.47 1.56Q2.09 1.18 1.22 1.18L1.22 1.18Q1.10 0.79 1.10 0.14L1.10 0.14Q1.82 0.22 2.93 0.22L2.93 0.22Q3.82 0.22 4.75 0.14L4.75 0.14L10.75 13.42L15.98 0.14Q16.80 0.22 17.86 0.22L17.86 0.22Q18.72 0.22 19.68 0.14L19.68 0.14Q19.68 0.72 19.56 1.18L19.56 1.18Q18.74 1.18 18.32 1.58Q17.90 1.99 17.90 3.00L17.90 3.00Q17.90 3.38 17.93 3.60L17.93 3.60L18.79 12.41Q18.91 13.61 19.10 14.24Q19.30 14.88 19.63 15.14Q19.97 15.41 20.54 15.46L20.54 15.46ZM33.12 13.03Q33.77 13.15 34.18 13.56L34.18 13.56Q33.74 14.69 33.53 16.46L33.53 16.46L28.90 16.44Q25.44 16.44 23.33 16.49L23.33 16.49Q23.33 15.74 23.45 15.41L23.45 15.41Q24.05 15.36 24.35 15.22Q24.65 15.07 24.77 14.69Q24.89 14.30 24.89 13.54L24.89 13.54L24.89 7.22Q24.89 6.53 24.76 6.17Q24.62 5.81 24.32 5.66Q24.02 5.52 23.45 5.47L23.45 5.47Q23.33 5.11 23.33 4.39L23.33 4.39Q25.06 4.44 27.10 4.44L27.10 4.44Q31.51 4.44 33 4.39L33 4.39Q33.26 6.65 33.46 7.37L33.46 7.37Q33.05 7.63 32.38 7.63L32.38 7.63Q32.28 6.62 31.55 6.05Q30.82 5.47 28.97 5.47L28.97 5.47L27.10 5.47L27.10 9.89L28.30 9.89Q29.57 9.89 30.06 9.60Q30.55 9.31 30.58 8.54L30.58 8.54Q31.10 8.38 31.68 8.38L31.68 8.38Q31.63 8.98 31.63 10.39L31.63 10.39Q31.63 11.93 31.68 12.48L31.68 12.48Q31.03 12.48 30.62 12.34L30.62 12.34Q30.55 11.54 30.06 11.26Q29.57 10.97 28.30 10.97L28.30 10.97L27.10 10.97L27.10 13.49Q27.10 14.26 27.25 14.65Q27.41 15.05 27.80 15.20Q28.20 15.36 28.99 15.36L28.99 15.36L29.14 15.36Q30.53 15.36 31.28 15.12Q32.04 14.88 32.41 14.41Q32.78 13.94 33.12 13.03L33.12 13.03ZM37.46 16.49Q37.46 15.74 37.58 15.41L37.58 15.41Q38.16 15.36 38.47 15.22Q38.78 15.07 38.92 14.69Q39.05 14.30 39.05 13.54L39.05 13.54L39.05 7.22Q39.05 6.53 38.92 6.17Q38.78 5.81 38.48 5.66Q38.18 5.52 37.58 5.47L37.58 5.47Q37.49 5.09 37.49 4.39L37.49 4.39Q38.83 4.44 40.58 4.44L40.58 4.44Q41.38 4.44 41.78 4.42L41.78 4.42L43.06 4.39Q46.54 4.39 48.78 5.62Q51.02 6.84 51.02 10.13L51.02 10.13Q51.02 13.87 48.48 15.16Q45.94 16.44 43.03 16.44L43.03 16.44Q39.58 16.44 37.46 16.49L37.46 16.49ZM43.13 15.36Q44.86 15.36 46.04 14.96Q47.23 14.57 47.94 13.49Q48.65 12.41 48.65 10.44L48.65 10.44Q48.65 7.78 46.98 6.60Q45.31 5.42 42.74 5.42L42.74 5.42Q41.76 5.42 41.26 5.57L41.26 5.57L41.26 13.49Q41.26 14.26 41.40 14.65Q41.54 15.05 41.94 15.20Q42.34 15.36 43.13 15.36L43.13 15.36ZM54.17 16.49Q54.17 15.74 54.29 15.41L54.29 15.41Q54.89 15.36 55.19 15.22Q55.49 15.07 55.61 14.71Q55.73 14.35 55.73 13.63L55.73 13.63L55.73 7.22Q55.73 6.53 55.61 6.17Q55.49 5.81 55.19 5.66Q54.89 5.52 54.29 5.47L54.29 5.47Q54.17 5.11 54.17 4.39L54.17 4.39Q55.70 4.44 56.86 4.44L56.86 4.44Q57.82 4.44 59.50 4.39L59.50 4.39Q59.50 5.14 59.40 5.47L59.40 5.47Q58.54 5.52 58.24 5.86Q57.94 6.19 57.94 7.22L57.94 7.22L57.94 13.63Q57.94 14.66 58.24 15.01Q58.54 15.36 59.40 15.41L59.40 15.41Q59.50 15.77 59.50 16.49L59.50 16.49Q57.86 16.44 56.86 16.44L56.86 16.44Q55.66 16.44 54.17 16.49L54.17 16.49ZM69.79 16.66Q67.58 16.66 65.84 15.59Q64.10 14.52 63.13 12.60Q62.16 10.68 62.16 8.21L62.16 8.21Q62.16 5.57 63.28 3.72Q64.39 1.87 66.23 0.94Q68.06 0 70.18 0L70.18 0Q71.64 0 72.89 0.30Q74.14 0.60 75.50 1.25L75.50 1.25Q75.24 2.50 75.24 4.97L75.24 4.97Q74.71 5.18 73.97 5.18L73.97 5.18Q73.87 2.78 72.98 1.88Q72.10 0.98 70.37 0.98L70.37 0.98Q68.42 0.98 67.15 1.90Q65.88 2.81 65.28 4.30Q64.68 5.78 64.68 7.56L64.68 7.56Q64.68 9.72 65.41 11.46Q66.14 13.20 67.54 14.20Q68.93 15.19 70.80 15.19L70.80 15.19Q71.93 15.19 73.13 14.81Q74.33 14.42 75.36 13.78L75.36 13.78Q75.50 13.90 75.64 14.12Q75.77 14.35 75.79 14.52L75.79 14.52Q74.33 15.65 72.95 16.15Q71.57 16.66 69.79 16.66L69.79 16.66ZM91.06 15.41Q91.18 15.77 91.18 16.49L91.18 16.49Q90.22 16.44 88.70 16.44L88.70 16.44Q87.12 16.44 86.16 16.49L86.16 16.49Q86.16 15.74 86.30 15.41L86.30 15.41Q86.86 15.34 87.08 15.20Q87.31 15.07 87.31 14.81L87.31 14.81Q87.31 14.59 87.07 14.06L87.07 14.06L86.59 13.03Q83.14 13.03 81.14 13.15L81.14 13.15L80.88 13.78Q80.64 14.33 80.64 14.64L80.64 14.64Q80.64 15.31 81.62 15.41L81.62 15.41Q81.77 15.84 81.77 16.49L81.77 16.49Q80.86 16.44 79.78 16.44L79.78 16.44Q78.84 16.44 78.07 16.49L78.07 16.49Q78.07 15.91 78.22 15.41L78.22 15.41Q78.74 15.31 79.03 14.96Q79.32 14.62 79.80 13.56L79.80 13.56L83.93 4.42Q84.38 4.32 84.89 4.32L84.89 4.32L89.30 13.49Q89.83 14.59 90.20 14.98Q90.58 15.36 91.06 15.41L91.06 15.41ZM81.62 12.05L86.11 12.05L84.67 9.02Q84.05 7.75 83.81 7.01L83.81 7.01Q83.62 7.61 83.34 8.20Q83.06 8.78 82.99 8.93L82.99 8.93L81.62 12.05ZM99.89 15.36Q101.02 15.36 101.68 15.13Q102.34 14.90 102.73 14.41Q103.13 13.92 103.49 13.03L103.49 13.03Q104.14 13.15 104.54 13.56L104.54 13.56Q104.11 14.69 103.90 16.46L103.90 16.46L99.65 16.44Q96.19 16.44 94.08 16.49L94.08 16.49Q94.08 15.74 94.20 15.41L94.20 15.41Q94.78 15.36 95.09 15.22Q95.40 15.07 95.53 14.69Q95.66 14.30 95.66 13.54L95.66 13.54L95.66 7.22Q95.66 6.53 95.53 6.17Q95.40 5.81 95.10 5.66Q94.80 5.52 94.20 5.47L94.20 5.47Q94.10 5.09 94.10 4.39L94.10 4.39Q95.83 4.44 96.77 4.44L96.77 4.44Q97.75 4.44 99.43 4.39L99.43 4.39Q99.43 5.11 99.31 5.47L99.31 5.47Q98.47 5.52 98.17 5.87Q97.87 6.22 97.87 7.25L97.87 7.25L97.87 13.49Q97.87 14.26 98.02 14.65Q98.16 15.05 98.56 15.20Q98.95 15.36 99.74 15.36L99.74 15.36L99.89 15.36ZM113.14 15.36Q114.26 15.36 114.92 15.13Q115.58 14.90 115.98 14.41Q116.38 13.92 116.74 13.03L116.74 13.03Q117.38 13.15 117.79 13.56L117.79 13.56Q117.36 14.69 117.14 16.46L117.14 16.46L112.90 16.44Q109.44 16.44 107.33 16.49L107.33 16.49Q107.33 15.74 107.45 15.41L107.45 15.41Q108.02 15.36 108.34 15.22Q108.65 15.07 108.78 14.69Q108.91 14.30 108.91 13.54L108.91 13.54L108.91 7.22Q108.91 6.53 108.78 6.17Q108.65 5.81 108.35 5.66Q108.05 5.52 107.45 5.47L107.45 5.47Q107.35 5.09 107.35 4.39L107.35 4.39Q109.08 4.44 110.02 4.44L110.02 4.44Q111 4.44 112.68 4.39L112.68 4.39Q112.68 5.11 112.56 5.47L112.56 5.47Q111.72 5.52 111.42 5.87Q111.12 6.22 111.12 7.25L111.12 7.25L111.12 13.49Q111.12 14.26 111.26 14.65Q111.41 15.05 111.80 15.20Q112.20 15.36 112.99 15.36L112.99 15.36L113.14 15.36Z" transform="translate(36, 9.672)"></path></svg>